<mxfile host="app.diagrams.net" modified="2022-02-14T08:51:37.380Z" agent="5.0 (Windows NT 10.0; Win64; x64) AppleWebKit/537.36 (KHTML, like Gecko) Chrome/98.0.4758.82 Safari/537.36" etag="lCV8Rzer9tYQQnkUslQs" version="16.5.6" type="github">
  <diagram name="Page-1" id="2a216829-ef6e-dabb-86c1-c78162f3ba2b">
    <mxGraphModel dx="2926" dy="1042" grid="1" gridSize="10" guides="1" tooltips="1" connect="1" arrows="1" fold="1" page="1" pageScale="1" pageWidth="850" pageHeight="1100" background="none" math="0" shadow="0">
      <root>
        <mxCell id="0" />
        <mxCell id="1" parent="0" />
        <mxCell id="JXV3cBEJmrFiYTBz7ml--83" value="" style="rounded=0;whiteSpace=wrap;html=1;fontSize=30;" vertex="1" parent="1">
          <mxGeometry x="390" y="220" width="450" height="670" as="geometry" />
        </mxCell>
        <mxCell id="JXV3cBEJmrFiYTBz7ml--81" value="" style="rounded=0;whiteSpace=wrap;html=1;fontSize=30;" vertex="1" parent="1">
          <mxGeometry x="850" y="220" width="550" height="670" as="geometry" />
        </mxCell>
        <mxCell id="JXV3cBEJmrFiYTBz7ml--18" value="" style="ellipse;shape=cloud;whiteSpace=wrap;html=1;" vertex="1" parent="1">
          <mxGeometry x="40" y="665" width="120" height="80" as="geometry" />
        </mxCell>
        <mxCell id="JXV3cBEJmrFiYTBz7ml--2" value="Implementation" style="shape=ext;rounded=1;html=1;whiteSpace=wrap;fillColor=#ffe6cc;strokeColor=#d79b00;" vertex="1" parent="1">
          <mxGeometry x="160" y="510" width="120" height="40" as="geometry" />
        </mxCell>
        <mxCell id="JXV3cBEJmrFiYTBz7ml--3" value="Abstraction" style="shape=ext;rounded=1;html=1;whiteSpace=wrap;fillColor=#d5e8d4;strokeColor=#82b366;" vertex="1" parent="1">
          <mxGeometry x="160" y="625" width="120" height="40" as="geometry" />
        </mxCell>
        <mxCell id="JXV3cBEJmrFiYTBz7ml--9" value="" style="edgeStyle=orthogonalEdgeStyle;rounded=0;orthogonalLoop=1;jettySize=auto;html=1;entryX=0;entryY=0.5;entryDx=0;entryDy=0;exitX=0.55;exitY=0.95;exitDx=0;exitDy=0;exitPerimeter=0;" edge="1" parent="1" source="JXV3cBEJmrFiYTBz7ml--17" target="JXV3cBEJmrFiYTBz7ml--2">
          <mxGeometry relative="1" as="geometry">
            <mxPoint x="245" y="460" as="sourcePoint" />
            <mxPoint x="170" y="550" as="targetPoint" />
            <Array as="points">
              <mxPoint x="100" y="501" />
              <mxPoint x="100" y="530" />
              <mxPoint x="160" y="530" />
            </Array>
          </mxGeometry>
        </mxCell>
        <mxCell id="JXV3cBEJmrFiYTBz7ml--5" value="Interface" style="text;html=1;align=center;verticalAlign=middle;resizable=0;points=[];autosize=1;strokeColor=none;fillColor=none;" vertex="1" parent="1">
          <mxGeometry x="70" y="695" width="60" height="20" as="geometry" />
        </mxCell>
        <mxCell id="JXV3cBEJmrFiYTBz7ml--11" value="" style="edgeStyle=orthogonalEdgeStyle;rounded=0;orthogonalLoop=1;jettySize=auto;html=1;entryX=0;entryY=0.5;entryDx=0;entryDy=0;exitX=0.5;exitY=0.125;exitDx=0;exitDy=0;exitPerimeter=0;" edge="1" parent="1" source="JXV3cBEJmrFiYTBz7ml--18" target="JXV3cBEJmrFiYTBz7ml--3">
          <mxGeometry relative="1" as="geometry">
            <mxPoint x="128" y="624" as="sourcePoint" />
            <mxPoint x="168" y="624" as="targetPoint" />
            <Array as="points" />
          </mxGeometry>
        </mxCell>
        <mxCell id="JXV3cBEJmrFiYTBz7ml--17" value="" style="ellipse;shape=cloud;whiteSpace=wrap;html=1;" vertex="1" parent="1">
          <mxGeometry x="40" y="425" width="120" height="80" as="geometry" />
        </mxCell>
        <mxCell id="JXV3cBEJmrFiYTBz7ml--14" value="Class" style="text;html=1;align=center;verticalAlign=middle;resizable=0;points=[];autosize=1;strokeColor=none;fillColor=none;" vertex="1" parent="1">
          <mxGeometry x="75" y="455" width="50" height="20" as="geometry" />
        </mxCell>
        <mxCell id="JXV3cBEJmrFiYTBz7ml--23" value="" style="ellipse;shape=cloud;whiteSpace=wrap;html=1;" vertex="1" parent="1">
          <mxGeometry x="-40" y="547" width="120" height="80" as="geometry" />
        </mxCell>
        <mxCell id="JXV3cBEJmrFiYTBz7ml--24" value="Layer" style="shape=ext;rounded=1;html=1;whiteSpace=wrap;fillColor=#dae8fc;strokeColor=#6c8ebf;" vertex="1" parent="1">
          <mxGeometry x="160" y="567" width="120" height="40" as="geometry" />
        </mxCell>
        <mxCell id="JXV3cBEJmrFiYTBz7ml--25" value="Package" style="text;html=1;align=center;verticalAlign=middle;resizable=0;points=[];autosize=1;strokeColor=none;fillColor=none;" vertex="1" parent="1">
          <mxGeometry x="-10" y="577" width="60" height="20" as="geometry" />
        </mxCell>
        <mxCell id="JXV3cBEJmrFiYTBz7ml--26" value="" style="edgeStyle=orthogonalEdgeStyle;rounded=0;orthogonalLoop=1;jettySize=auto;html=1;entryX=0;entryY=0.5;entryDx=0;entryDy=0;exitX=0.875;exitY=0.5;exitDx=0;exitDy=0;exitPerimeter=0;" edge="1" parent="1" source="JXV3cBEJmrFiYTBz7ml--23" target="JXV3cBEJmrFiYTBz7ml--24">
          <mxGeometry relative="1" as="geometry">
            <mxPoint x="128" y="566" as="sourcePoint" />
            <mxPoint x="168" y="566" as="targetPoint" />
            <Array as="points" />
          </mxGeometry>
        </mxCell>
        <mxCell id="7a84cebc1def654-1" value="User" style="shape=mxgraph.bpmn.shape;html=1;verticalLabelPosition=bottom;labelBackgroundColor=#ffffff;verticalAlign=top;perimeter=ellipsePerimeter;outline=standard;symbol=general;direction=west;" parent="1" vertex="1">
          <mxGeometry x="420" y="562" width="50" height="50" as="geometry" />
        </mxCell>
        <mxCell id="JXV3cBEJmrFiYTBz7ml--20" style="edgeStyle=orthogonalEdgeStyle;rounded=0;orthogonalLoop=1;jettySize=auto;html=1;exitX=0;exitY=0.5;exitDx=0;exitDy=0;" edge="1" parent="1" source="7a84cebc1def654-2">
          <mxGeometry relative="1" as="geometry">
            <mxPoint x="470.5" y="587.25" as="targetPoint" />
          </mxGeometry>
        </mxCell>
        <mxCell id="7a84cebc1def654-2" value="&lt;font style=&quot;font-size: 18px&quot;&gt;&lt;b&gt;View&amp;nbsp;&lt;/b&gt;&lt;/font&gt;" style="shape=ext;rounded=1;html=1;whiteSpace=wrap;fillColor=#ffe6cc;strokeColor=#d79b00;" parent="1" vertex="1">
          <mxGeometry x="520" y="554.75" width="120" height="64.5" as="geometry" />
        </mxCell>
        <mxCell id="JXV3cBEJmrFiYTBz7ml--19" style="edgeStyle=orthogonalEdgeStyle;rounded=0;orthogonalLoop=1;jettySize=auto;html=1;exitX=0;exitY=0.5;exitDx=0;exitDy=0;entryX=1;entryY=0.5;entryDx=0;entryDy=0;" edge="1" parent="1" source="7a84cebc1def654-3" target="7a84cebc1def654-2">
          <mxGeometry relative="1" as="geometry" />
        </mxCell>
        <mxCell id="7a84cebc1def654-3" value="&lt;font style=&quot;font-size: 18px&quot;&gt;&lt;b&gt;ViewModel&lt;/b&gt;&lt;/font&gt;" style="shape=ext;rounded=1;html=1;whiteSpace=wrap;fillColor=#ffe6cc;strokeColor=#d79b00;" parent="1" vertex="1">
          <mxGeometry x="690" y="554.75" width="120" height="64.5" as="geometry" />
        </mxCell>
        <mxCell id="7a84cebc1def654-36" style="edgeStyle=orthogonalEdgeStyle;rounded=0;html=1;jettySize=auto;orthogonalLoop=1;" parent="1" source="7a84cebc1def654-1" target="7a84cebc1def654-2" edge="1">
          <mxGeometry relative="1" as="geometry" />
        </mxCell>
        <mxCell id="7a84cebc1def654-39" style="edgeStyle=orthogonalEdgeStyle;rounded=0;html=1;jettySize=auto;orthogonalLoop=1;" parent="1" source="7a84cebc1def654-2" target="7a84cebc1def654-3" edge="1">
          <mxGeometry relative="1" as="geometry" />
        </mxCell>
        <mxCell id="JXV3cBEJmrFiYTBz7ml--39" value="" style="rounded=0;whiteSpace=wrap;html=1;fillColor=#dae8fc;strokeColor=#6c8ebf;" vertex="1" parent="1">
          <mxGeometry x="910" y="652.5" width="430" height="190" as="geometry" />
        </mxCell>
        <mxCell id="JXV3cBEJmrFiYTBz7ml--42" value="&lt;font&gt;&lt;b&gt;&lt;font style=&quot;font-size: 18px&quot;&gt;UseCase&lt;/font&gt;&lt;span style=&quot;font-size: 16px&quot;&gt;&amp;nbsp;&lt;/span&gt;&lt;/b&gt;&lt;/font&gt;" style="shape=ext;rounded=1;html=1;whiteSpace=wrap;fillColor=#ffe6cc;strokeColor=#d79b00;" vertex="1" parent="1">
          <mxGeometry x="980" y="739.5" width="120" height="64.5" as="geometry" />
        </mxCell>
        <mxCell id="JXV3cBEJmrFiYTBz7ml--43" style="edgeStyle=orthogonalEdgeStyle;rounded=0;orthogonalLoop=1;jettySize=auto;html=1;exitX=0;exitY=0.5;exitDx=0;exitDy=0;entryX=1;entryY=0.5;entryDx=0;entryDy=0;" edge="1" parent="1" source="JXV3cBEJmrFiYTBz7ml--44" target="JXV3cBEJmrFiYTBz7ml--42">
          <mxGeometry relative="1" as="geometry" />
        </mxCell>
        <mxCell id="JXV3cBEJmrFiYTBz7ml--44" value="&lt;font style=&quot;font-size: 18px&quot;&gt;&lt;b&gt;Repository&lt;/b&gt;&lt;/font&gt;" style="shape=ext;rounded=1;html=1;whiteSpace=wrap;fillColor=#d5e8d4;strokeColor=#82b366;" vertex="1" parent="1">
          <mxGeometry x="1150" y="739.5" width="120" height="64.5" as="geometry" />
        </mxCell>
        <mxCell id="JXV3cBEJmrFiYTBz7ml--46" style="edgeStyle=orthogonalEdgeStyle;rounded=0;html=1;jettySize=auto;orthogonalLoop=1;" edge="1" parent="1" source="JXV3cBEJmrFiYTBz7ml--42" target="JXV3cBEJmrFiYTBz7ml--44">
          <mxGeometry relative="1" as="geometry" />
        </mxCell>
        <mxCell id="JXV3cBEJmrFiYTBz7ml--65" value="" style="rounded=0;whiteSpace=wrap;html=1;fillColor=#dae8fc;strokeColor=#6c8ebf;" vertex="1" parent="1">
          <mxGeometry x="910" y="322" width="430" height="300" as="geometry" />
        </mxCell>
        <mxCell id="JXV3cBEJmrFiYTBz7ml--66" value="&lt;font&gt;&lt;b&gt;&lt;font style=&quot;font-size: 18px&quot;&gt;UseCase&lt;/font&gt;&lt;span style=&quot;font-size: 16px&quot;&gt;&amp;nbsp;&lt;/span&gt;&lt;/b&gt;&lt;/font&gt;" style="shape=ext;rounded=1;html=1;whiteSpace=wrap;fillColor=#ffe6cc;strokeColor=#d79b00;" vertex="1" parent="1">
          <mxGeometry x="941.25" y="392" width="120" height="80" as="geometry" />
        </mxCell>
        <mxCell id="JXV3cBEJmrFiYTBz7ml--67" style="rounded=0;orthogonalLoop=1;jettySize=auto;html=1;exitX=0;exitY=0.5;exitDx=0;exitDy=0;entryX=0.5;entryY=1;entryDx=0;entryDy=0;startArrow=blockThin;startFill=1;" edge="1" parent="1" source="JXV3cBEJmrFiYTBz7ml--68" target="JXV3cBEJmrFiYTBz7ml--66">
          <mxGeometry relative="1" as="geometry" />
        </mxCell>
        <mxCell id="JXV3cBEJmrFiYTBz7ml--68" value="&lt;font style=&quot;font-size: 18px&quot;&gt;&lt;b&gt;Repository&lt;br&gt;Data&lt;br&gt;&lt;/b&gt;&lt;/font&gt;" style="shape=ext;rounded=1;html=1;whiteSpace=wrap;fillColor=#ffe6cc;strokeColor=#d79b00;" vertex="1" parent="1">
          <mxGeometry x="1070" y="512" width="120" height="80" as="geometry" />
        </mxCell>
        <mxCell id="JXV3cBEJmrFiYTBz7ml--71" value="&lt;span style=&quot;font-size: 18px&quot;&gt;&lt;b&gt;Network&lt;/b&gt;&lt;/span&gt;" style="shape=ext;rounded=1;html=1;whiteSpace=wrap;fillColor=#ffe6cc;strokeColor=#d79b00;" vertex="1" parent="1">
          <mxGeometry x="1188.75" y="392" width="120" height="80" as="geometry" />
        </mxCell>
        <mxCell id="JXV3cBEJmrFiYTBz7ml--76" style="rounded=0;orthogonalLoop=1;jettySize=auto;html=1;entryX=0.5;entryY=1;entryDx=0;entryDy=0;exitX=1;exitY=0.5;exitDx=0;exitDy=0;endArrow=block;endFill=0;startArrow=block;" edge="1" parent="1" source="JXV3cBEJmrFiYTBz7ml--68" target="JXV3cBEJmrFiYTBz7ml--71">
          <mxGeometry relative="1" as="geometry">
            <mxPoint x="1180" y="552" as="sourcePoint" />
            <mxPoint x="1015" y="412.0000000000001" as="targetPoint" />
          </mxGeometry>
        </mxCell>
        <mxCell id="JXV3cBEJmrFiYTBz7ml--78" value="&lt;font size=&quot;1&quot;&gt;&lt;b&gt;&lt;u style=&quot;font-size: 30px&quot;&gt;Data&lt;/u&gt;&lt;/b&gt;&lt;/font&gt;" style="text;html=1;strokeColor=none;fillColor=none;align=center;verticalAlign=middle;whiteSpace=wrap;rounded=0;fontSize=18;" vertex="1" parent="1">
          <mxGeometry x="1095" y="344.5" width="60" height="30" as="geometry" />
        </mxCell>
        <mxCell id="JXV3cBEJmrFiYTBz7ml--80" value="&lt;font size=&quot;1&quot;&gt;&lt;b&gt;&lt;u style=&quot;font-size: 30px&quot;&gt;Domain&lt;/u&gt;&lt;/b&gt;&lt;/font&gt;" style="text;html=1;strokeColor=none;fillColor=none;align=center;verticalAlign=middle;whiteSpace=wrap;rounded=0;fontSize=18;" vertex="1" parent="1">
          <mxGeometry x="1095" y="674.5" width="60" height="30" as="geometry" />
        </mxCell>
        <mxCell id="JXV3cBEJmrFiYTBz7ml--82" value="&lt;font size=&quot;1&quot;&gt;&lt;b&gt;&lt;u style=&quot;font-size: 30px&quot;&gt;Clean Code Achitecture&lt;/u&gt;&lt;/b&gt;&lt;/font&gt;" style="text;html=1;strokeColor=none;fillColor=none;align=left;verticalAlign=middle;whiteSpace=wrap;rounded=0;fontSize=18;" vertex="1" parent="1">
          <mxGeometry x="900" y="250" width="370" height="30" as="geometry" />
        </mxCell>
        <mxCell id="JXV3cBEJmrFiYTBz7ml--84" value="&lt;font size=&quot;1&quot;&gt;&lt;b&gt;&lt;u style=&quot;font-size: 30px&quot;&gt;MVVVM&lt;/u&gt;&lt;/b&gt;&lt;/font&gt;" style="text;html=1;strokeColor=none;fillColor=none;align=left;verticalAlign=middle;whiteSpace=wrap;rounded=0;fontSize=18;" vertex="1" parent="1">
          <mxGeometry x="425" y="250" width="370" height="30" as="geometry" />
        </mxCell>
      </root>
    </mxGraphModel>
  </diagram>
</mxfile>
